<mxfile host="app.diagrams.net" modified="2023-06-06T01:43:16.267Z" agent="Mozilla/5.0 (Windows NT 10.0; Win64; x64) AppleWebKit/537.36 (KHTML, like Gecko) Chrome/114.0.0.0 Safari/537.36 Edg/114.0.1823.37" version="21.3.7" etag="w0dV_v-B7xaOOXhsNB7H" type="github">
  <diagram name="Page-1" id="2xQtVjgKB49jwhHwCJxN">
    <mxGraphModel>
      <root>
        <mxCell id="0" />
        <mxCell id="1" parent="0" />
      </root>
    </mxGraphModel>
  </diagram>
</mxfile>
